<mxfile host="app.diagrams.net" modified="2022-10-12T06:45:28.191Z" agent="5.0 (Windows NT 10.0; Win64; x64) AppleWebKit/537.36 (KHTML, like Gecko) Chrome/106.0.0.0 Safari/537.36 Edg/106.0.1370.42" etag="7n2X6nsOlFoi4HQf6O30" version="20.4.0" type="github">
  <diagram id="X2K3a4CVGlsGaMza_VcX" name="Страница 1">
    <mxGraphModel dx="2154" dy="794" grid="1" gridSize="10" guides="1" tooltips="1" connect="1" arrows="1" fold="1" page="1" pageScale="1" pageWidth="827" pageHeight="1169" math="0" shadow="0">
      <root>
        <mxCell id="0" />
        <mxCell id="1" parent="0" />
        <mxCell id="IsSY0tmbwH1rrZSBO-qD-2" style="edgeStyle=orthogonalEdgeStyle;rounded=0;orthogonalLoop=1;jettySize=auto;html=1;startArrow=none;" edge="1" parent="1" source="IsSY0tmbwH1rrZSBO-qD-27" target="IsSY0tmbwH1rrZSBO-qD-11">
          <mxGeometry relative="1" as="geometry" />
        </mxCell>
        <mxCell id="IsSY0tmbwH1rrZSBO-qD-3" style="edgeStyle=orthogonalEdgeStyle;rounded=0;orthogonalLoop=1;jettySize=auto;html=1;" edge="1" parent="1" source="IsSY0tmbwH1rrZSBO-qD-5" target="IsSY0tmbwH1rrZSBO-qD-15">
          <mxGeometry relative="1" as="geometry" />
        </mxCell>
        <mxCell id="IsSY0tmbwH1rrZSBO-qD-4" style="edgeStyle=orthogonalEdgeStyle;rounded=0;orthogonalLoop=1;jettySize=auto;html=1;" edge="1" parent="1" source="IsSY0tmbwH1rrZSBO-qD-5" target="IsSY0tmbwH1rrZSBO-qD-27">
          <mxGeometry relative="1" as="geometry" />
        </mxCell>
        <mxCell id="IsSY0tmbwH1rrZSBO-qD-5" value="Admin" style="shape=umlActor;verticalLabelPosition=bottom;verticalAlign=top;html=1;" vertex="1" parent="1">
          <mxGeometry x="240" y="1185" width="30" height="60" as="geometry" />
        </mxCell>
        <mxCell id="IsSY0tmbwH1rrZSBO-qD-6" value="Create channel" style="ellipse;whiteSpace=wrap;html=1;" vertex="1" parent="1">
          <mxGeometry x="-20" y="1310" width="140" height="70" as="geometry" />
        </mxCell>
        <mxCell id="IsSY0tmbwH1rrZSBO-qD-7" value="Delete channel" style="ellipse;whiteSpace=wrap;html=1;" vertex="1" parent="1">
          <mxGeometry x="70" y="1450" width="140" height="70" as="geometry" />
        </mxCell>
        <mxCell id="IsSY0tmbwH1rrZSBO-qD-8" style="edgeStyle=orthogonalEdgeStyle;rounded=0;orthogonalLoop=1;jettySize=auto;html=1;entryX=0;entryY=0.5;entryDx=0;entryDy=0;" edge="1" parent="1" source="IsSY0tmbwH1rrZSBO-qD-11" target="IsSY0tmbwH1rrZSBO-qD-19">
          <mxGeometry relative="1" as="geometry" />
        </mxCell>
        <mxCell id="IsSY0tmbwH1rrZSBO-qD-9" style="edgeStyle=orthogonalEdgeStyle;rounded=0;orthogonalLoop=1;jettySize=auto;html=1;" edge="1" parent="1" source="IsSY0tmbwH1rrZSBO-qD-11" target="IsSY0tmbwH1rrZSBO-qD-24">
          <mxGeometry relative="1" as="geometry" />
        </mxCell>
        <mxCell id="IsSY0tmbwH1rrZSBO-qD-10" style="edgeStyle=orthogonalEdgeStyle;rounded=0;orthogonalLoop=1;jettySize=auto;html=1;" edge="1" parent="1" source="IsSY0tmbwH1rrZSBO-qD-11" target="IsSY0tmbwH1rrZSBO-qD-37">
          <mxGeometry relative="1" as="geometry" />
        </mxCell>
        <mxCell id="IsSY0tmbwH1rrZSBO-qD-11" value="TV Show Editor" style="shape=umlActor;verticalLabelPosition=bottom;verticalAlign=top;html=1;" vertex="1" parent="1">
          <mxGeometry x="240" y="950" width="30" height="60" as="geometry" />
        </mxCell>
        <mxCell id="IsSY0tmbwH1rrZSBO-qD-12" style="edgeStyle=orthogonalEdgeStyle;rounded=0;orthogonalLoop=1;jettySize=auto;html=1;" edge="1" parent="1" source="IsSY0tmbwH1rrZSBO-qD-15" target="IsSY0tmbwH1rrZSBO-qD-6">
          <mxGeometry relative="1" as="geometry" />
        </mxCell>
        <mxCell id="IsSY0tmbwH1rrZSBO-qD-13" style="edgeStyle=orthogonalEdgeStyle;rounded=0;orthogonalLoop=1;jettySize=auto;html=1;entryX=0.5;entryY=0;entryDx=0;entryDy=0;" edge="1" parent="1" source="IsSY0tmbwH1rrZSBO-qD-15" target="IsSY0tmbwH1rrZSBO-qD-7">
          <mxGeometry relative="1" as="geometry" />
        </mxCell>
        <mxCell id="IsSY0tmbwH1rrZSBO-qD-14" style="edgeStyle=orthogonalEdgeStyle;rounded=0;orthogonalLoop=1;jettySize=auto;html=1;" edge="1" parent="1" source="IsSY0tmbwH1rrZSBO-qD-15" target="IsSY0tmbwH1rrZSBO-qD-16">
          <mxGeometry relative="1" as="geometry" />
        </mxCell>
        <mxCell id="IsSY0tmbwH1rrZSBO-qD-15" value="Work with channel" style="ellipse;whiteSpace=wrap;html=1;" vertex="1" parent="1">
          <mxGeometry x="185" y="1310" width="140" height="70" as="geometry" />
        </mxCell>
        <mxCell id="IsSY0tmbwH1rrZSBO-qD-16" value="Edit channel" style="ellipse;whiteSpace=wrap;html=1;" vertex="1" parent="1">
          <mxGeometry x="290" y="1450" width="140" height="70" as="geometry" />
        </mxCell>
        <mxCell id="IsSY0tmbwH1rrZSBO-qD-17" style="edgeStyle=orthogonalEdgeStyle;rounded=0;orthogonalLoop=1;jettySize=auto;html=1;entryX=0;entryY=0.5;entryDx=0;entryDy=0;" edge="1" parent="1" source="IsSY0tmbwH1rrZSBO-qD-19" target="IsSY0tmbwH1rrZSBO-qD-20">
          <mxGeometry relative="1" as="geometry" />
        </mxCell>
        <mxCell id="IsSY0tmbwH1rrZSBO-qD-18" style="edgeStyle=orthogonalEdgeStyle;rounded=0;orthogonalLoop=1;jettySize=auto;html=1;entryX=0;entryY=0.5;entryDx=0;entryDy=0;" edge="1" parent="1" source="IsSY0tmbwH1rrZSBO-qD-19" target="IsSY0tmbwH1rrZSBO-qD-21">
          <mxGeometry relative="1" as="geometry" />
        </mxCell>
        <mxCell id="IsSY0tmbwH1rrZSBO-qD-19" value="Work with TV show" style="ellipse;whiteSpace=wrap;html=1;" vertex="1" parent="1">
          <mxGeometry x="325" y="945" width="140" height="70" as="geometry" />
        </mxCell>
        <mxCell id="IsSY0tmbwH1rrZSBO-qD-20" value="Delete show" style="ellipse;whiteSpace=wrap;html=1;" vertex="1" parent="1">
          <mxGeometry x="520" y="1000" width="140" height="70" as="geometry" />
        </mxCell>
        <mxCell id="IsSY0tmbwH1rrZSBO-qD-21" value="Add show" style="ellipse;whiteSpace=wrap;html=1;" vertex="1" parent="1">
          <mxGeometry x="520" y="890" width="140" height="70" as="geometry" />
        </mxCell>
        <mxCell id="IsSY0tmbwH1rrZSBO-qD-22" style="edgeStyle=orthogonalEdgeStyle;rounded=0;orthogonalLoop=1;jettySize=auto;html=1;entryX=0.5;entryY=0;entryDx=0;entryDy=0;" edge="1" parent="1" source="IsSY0tmbwH1rrZSBO-qD-24" target="IsSY0tmbwH1rrZSBO-qD-25">
          <mxGeometry relative="1" as="geometry" />
        </mxCell>
        <mxCell id="IsSY0tmbwH1rrZSBO-qD-23" style="edgeStyle=orthogonalEdgeStyle;rounded=0;orthogonalLoop=1;jettySize=auto;html=1;entryX=0.5;entryY=1;entryDx=0;entryDy=0;" edge="1" parent="1" source="IsSY0tmbwH1rrZSBO-qD-24" target="IsSY0tmbwH1rrZSBO-qD-26">
          <mxGeometry relative="1" as="geometry" />
        </mxCell>
        <mxCell id="IsSY0tmbwH1rrZSBO-qD-24" value="Work with staff" style="ellipse;whiteSpace=wrap;html=1;" vertex="1" parent="1">
          <mxGeometry x="45" y="945" width="140" height="70" as="geometry" />
        </mxCell>
        <mxCell id="IsSY0tmbwH1rrZSBO-qD-25" value="Delete staff" style="ellipse;whiteSpace=wrap;html=1;" vertex="1" parent="1">
          <mxGeometry x="-110" y="1015" width="140" height="70" as="geometry" />
        </mxCell>
        <mxCell id="IsSY0tmbwH1rrZSBO-qD-26" value="Add staff" style="ellipse;whiteSpace=wrap;html=1;" vertex="1" parent="1">
          <mxGeometry x="-110" y="870" width="140" height="70" as="geometry" />
        </mxCell>
        <mxCell id="IsSY0tmbwH1rrZSBO-qD-27" value="Add show Editor" style="ellipse;whiteSpace=wrap;html=1;" vertex="1" parent="1">
          <mxGeometry x="185" y="1070" width="140" height="70" as="geometry" />
        </mxCell>
        <mxCell id="IsSY0tmbwH1rrZSBO-qD-28" value="" style="edgeStyle=orthogonalEdgeStyle;rounded=0;orthogonalLoop=1;jettySize=auto;html=1;endArrow=none;" edge="1" parent="1" source="IsSY0tmbwH1rrZSBO-qD-5" target="IsSY0tmbwH1rrZSBO-qD-27">
          <mxGeometry relative="1" as="geometry">
            <mxPoint x="255" y="1080" as="sourcePoint" />
            <mxPoint x="255" y="970" as="targetPoint" />
          </mxGeometry>
        </mxCell>
        <mxCell id="IsSY0tmbwH1rrZSBO-qD-29" style="edgeStyle=orthogonalEdgeStyle;rounded=0;orthogonalLoop=1;jettySize=auto;html=1;entryX=0.5;entryY=1;entryDx=0;entryDy=0;" edge="1" parent="1" source="IsSY0tmbwH1rrZSBO-qD-31" target="IsSY0tmbwH1rrZSBO-qD-32">
          <mxGeometry relative="1" as="geometry" />
        </mxCell>
        <mxCell id="IsSY0tmbwH1rrZSBO-qD-40" style="edgeStyle=orthogonalEdgeStyle;rounded=0;orthogonalLoop=1;jettySize=auto;html=1;entryX=0;entryY=0.5;entryDx=0;entryDy=0;" edge="1" parent="1" source="IsSY0tmbwH1rrZSBO-qD-31" target="IsSY0tmbwH1rrZSBO-qD-33">
          <mxGeometry relative="1" as="geometry" />
        </mxCell>
        <mxCell id="IsSY0tmbwH1rrZSBO-qD-31" value="TV Viewer" style="shape=umlActor;verticalLabelPosition=bottom;verticalAlign=top;html=1;" vertex="1" parent="1">
          <mxGeometry x="240" y="715" width="30" height="60" as="geometry" />
        </mxCell>
        <mxCell id="IsSY0tmbwH1rrZSBO-qD-32" value="Switching the TV channel" style="ellipse;whiteSpace=wrap;html=1;" vertex="1" parent="1">
          <mxGeometry x="170" y="585" width="170" height="70" as="geometry" />
        </mxCell>
        <mxCell id="IsSY0tmbwH1rrZSBO-qD-33" value="Viewing the schedule" style="ellipse;whiteSpace=wrap;html=1;" vertex="1" parent="1">
          <mxGeometry x="370" y="710" width="140" height="70" as="geometry" />
        </mxCell>
        <mxCell id="IsSY0tmbwH1rrZSBO-qD-34" style="edgeStyle=orthogonalEdgeStyle;rounded=0;orthogonalLoop=1;jettySize=auto;html=1;entryX=1;entryY=0.5;entryDx=0;entryDy=0;" edge="1" parent="1" source="IsSY0tmbwH1rrZSBO-qD-37" target="IsSY0tmbwH1rrZSBO-qD-38">
          <mxGeometry relative="1" as="geometry" />
        </mxCell>
        <mxCell id="IsSY0tmbwH1rrZSBO-qD-35" style="edgeStyle=orthogonalEdgeStyle;rounded=0;orthogonalLoop=1;jettySize=auto;html=1;entryX=0;entryY=0.5;entryDx=0;entryDy=0;" edge="1" parent="1" source="IsSY0tmbwH1rrZSBO-qD-37" target="IsSY0tmbwH1rrZSBO-qD-39">
          <mxGeometry relative="1" as="geometry" />
        </mxCell>
        <mxCell id="IsSY0tmbwH1rrZSBO-qD-36" style="edgeStyle=orthogonalEdgeStyle;rounded=0;orthogonalLoop=1;jettySize=auto;html=1;" edge="1" parent="1" source="IsSY0tmbwH1rrZSBO-qD-37" target="IsSY0tmbwH1rrZSBO-qD-31">
          <mxGeometry relative="1" as="geometry" />
        </mxCell>
        <mxCell id="IsSY0tmbwH1rrZSBO-qD-37" value="Schedule Creator" style="shape=umlActor;verticalLabelPosition=bottom;verticalAlign=top;html=1;" vertex="1" parent="1">
          <mxGeometry x="240" y="830" width="30" height="60" as="geometry" />
        </mxCell>
        <mxCell id="IsSY0tmbwH1rrZSBO-qD-38" value="Create Schedule" style="ellipse;whiteSpace=wrap;html=1;" vertex="1" parent="1">
          <mxGeometry x="50" y="825" width="140" height="70" as="geometry" />
        </mxCell>
        <mxCell id="IsSY0tmbwH1rrZSBO-qD-39" value="Edit schedule" style="ellipse;whiteSpace=wrap;html=1;" vertex="1" parent="1">
          <mxGeometry x="317.5" y="825" width="140" height="70" as="geometry" />
        </mxCell>
      </root>
    </mxGraphModel>
  </diagram>
</mxfile>
